<?xml version="1.0" encoding="utf-8"?>
<!-- Generator: Adobe Illustrator 21.0.0, SVG Export Plug-In . SVG Version: 6.00 Build 0)  -->
<svg version="1.1" xmlns="http://www.w3.org/2000/svg" xmlns:xlink="http://www.w3.org/1999/xlink" x="0px" y="0px"
	 viewBox="0 0 160 54" style="enable-background:new 0 0 160 54;" xml:space="preserve">
<style type="text/css">
	.st0{clip-path:url(#SVGID_2_);}
	.st1{fill-rule:evenodd;clip-rule:evenodd;fill:none;}
	.st2{fill:#F2F2F2;}
	.st3{fill:#F0F0F4;}
	.st4{fill:#002E6D;}
	.st5{fill:#FFFFFF;}
	.st6{fill:#E6E6E6;}
	.st7{fill:#242F64;}
	.st8{fill:#F0F0F0;}
	.st9{fill:#D80027;}
	.st10{fill:#0052B4;}
	.st11{fill:#223064;}
	.st12{opacity:0.5;}
	.st13{fill:#F26F35;}
	.st14{fill:#C1C1C1;}
	.st15{fill:none;stroke:#F26F35;stroke-width:2;stroke-miterlimit:10;}
	.st16{opacity:0.67;}
	.st17{fill:#333232;}
	.st18{fill:#A9A5A4;}
	.st19{fill:none;stroke:#A9A5A4;stroke-width:2;stroke-miterlimit:10;}
	.st20{fill:#303F76;}
	.st21{fill:#EEEEEE;}
	.st22{fill:#15120F;}
	.st23{fill:#FFD828;}
	.st24{clip-path:url(#SVGID_132_);}
	.st25{opacity:0.8;}
	.st26{fill:none;stroke:#002E6D;stroke-miterlimit:10;}
	.st27{opacity:0.19;fill:none;stroke:#002E6D;stroke-miterlimit:10;}
	.st28{opacity:0.19;fill:#002E6D;}
	.st29{opacity:0.4;}
	.st30{fill:#0082CA;}
	.st31{fill:#0091CB;}
	.st32{fill:#00975D;}
	.st33{opacity:0.98;fill:#D3D5E0;}
	.st34{fill:none;stroke:#002E6D;stroke-width:0.5;stroke-linecap:round;stroke-linejoin:round;stroke-miterlimit:10;}
	.st35{clip-path:url(#SVGID_152_);fill:#242F64;}
	.st36{opacity:0.3;fill:#1A1A1A;}
	.st37{fill:#61B4E4;}
	.st38{fill:none;stroke:#FFFFFF;stroke-miterlimit:10;}
</style>
<g id="Layer_1">
	<path class="st7" d="M155.7,39.2c0.3,0.7,0.3,1.9-0.2,2.6c-0.3,0.4-1.3,0.9-1.8,1c-0.9,0.2-1.8,0.4-2.7,0.6
		c-1.8,0.4-3.7,0.7-5.6,0.8c-0.8,0.1-1.7,0.2-2.5-0.1c-0.6-0.3-0.9-1-1.2-1.6c-0.2-0.5-0.4-1.2-1-0.9c-0.6,0.3-1.2,1-1.9,1.3
		c-1.2,0.7-2.5,1.2-3.8,1.5c-4.7,0.9-8.8-2-11.8-5.3c-1.1,1.1-2,2.2-3.2,3c-2.6,1.7-5.6,2.4-8.6,2.3c-6.1-0.2-9.7-4-9.9-10.1
		c0-0.9,0-1.9-0.1-2.8c-0.1-2.5-0.3-5-0.4-7.5c-1.4,0-2.5,0-3.7,0c0.4,1,0.9,1.9,1.1,2.9c0.6,2.9,0.1,5.6-4,5.3
		c-2.2-0.1-4.5-0.1-6.7-0.1c-1.3,0-2.6,0-3.9,0c-0.4,0-1.1-0.1-1.2,0.5c0,0.8,1,2,1.6,2.5c1.8,1.6,3.9,2.2,6.3,1.5
		c1.2-0.3,2.4-0.9,3.5-1.5c1.9-0.9,3.4-0.3,3.7,1.8c0.3,1.7-0.6,3-1.9,4c-3.6,2.6-7.6,3.6-12,3.3c-3.2-0.2-6-1.3-8.6-3.3
		c-0.2,1.6-1.1,2.5-2.5,2.6c-4.2,0.2-8.3,0.3-12.5,0.3c-0.5,0-1-0.2-1.4-0.4c-2.2-0.9-2.4-3.4-0.6-4.8c0.3-0.3,0.8-0.6,0.8-1
		c0.5-3.2,0.9-6.5-0.4-9.6c-0.7-1.7-1.9-2.4-3.5-2.1c-1.6,0.2-2.2,1.4-2.3,2.8c-0.2,2.2-0.2,4.5-0.3,6.7c-0.1,1.2,0.2,2.1,1.3,2.8
		c1.9,1.3,1.7,3.8-0.4,4.8c-1.1,0.5-2.4,0.8-3.6,0.9c-3.5,0.3-7.1,0.6-10.5-0.6c-0.8-0.3-1.7-1.3-2-2.1C37,40.1,37,38.7,38.6,38
		c0.4-0.2,0.7-0.9,0.8-1.3c0.5-3.7,0.8-7.4,1-11.1c0,0,0-0.1,0-0.1c0-0.1-0.2-0.1-0.3-0.1c-0.5,0-0.7-0.1-0.9,0.4
		c-0.1,0.4-0.1,1-0.1,1.5c0,0.9,0,1.7-0.1,2.6c-1.7,12.6-15.5,19.2-26.4,12.6c-1-0.6-1.9-0.8-2.9-0.3c-1.2,0.5-2.5,0.6-3.6-0.2
		c0-0.6,0-1.1,0-1.7c0.5-1.2,1.1-2.4,1.3-3.7c0.9-5.5,1.7-11.1,2.6-16.6c0.2-1.1-0.2-1.9-1.3-2.1c-2.5-0.7-2.4-3.2-0.3-4.4
		c0.6-0.3,1.2-0.8,1.9-1c3.1-0.8,6.3-1.6,9.4-2.2c3.2-0.6,3.6,0,3,3.2c-0.4,2.6-0.8,5.3-1.3,8.2c2.8-1.7,5.5-3.1,8.6-2.9
		c3.2,0.2,5.7,1.7,7.5,4.3c0.8-0.6,1.4-1.3,2.2-1.6c3.6-1.1,7.3-2.1,10.9-3c1.4-0.4,2.3,0.5,2.4,2c0.1,0.6,0.3,1.2,0.5,1.8
		c0.5-0.4,1.1-0.7,1.6-1.1c0.5-0.4,0.9-0.9,1.3-1.2c3.1-2.1,6.4-2,9.6-0.7c2.8,1.1,3.5,3.7,3.8,6.5c0.2,1.8,0.3,3.5,0.5,5.3
		c0.1,0.9,0.2,1.8,0.3,2.7c0.1,0.8,0.1,1.7,0.4,2.4c0.1,0.4,0.2,1.2,0.7,1.1c0.3-0.1,0.3-0.2,0.2-0.5c-0.1-0.4-0.3-0.9-0.4-1.3
		c-0.3-0.9-0.4-1.8-0.6-2.7c-0.6-4.9,1.7-9.1,5.8-11.8c6.6-4.2,13.2-3.7,19.7,1.8c-0.9-2.5,0.8-3.2,2.2-4c2.8-1.7,5.7-3.3,8.5-5.1
		c1.5-0.9,3-1,4.6-1c1,0,1.4,0.5,1.5,1.4c0.1,1,0.2,2,0.2,3c0,1,0.5,1.4,1.5,1.3c0.9,0,1.8,0,2.6,0c3.7,0,4,0.2,4,3.1
		c0,2.3-0.3,2.5-3.9,2.5c-1.2,0-2.4,0-3.7,0c0.2,3.1,0.5,5.9,0.6,8.7c0,1.3,0.5,2.9,1.7,3.5c0.6,0.3,1.2,0.4,1.9,0.2
		c0.4-0.1,0.8-0.2,1.1-0.4c0.4-0.2,0.8-0.3,1.1-0.5c0.7-0.5,0.3-1,0.1-1.8c-0.2-0.6-0.3-1.3-0.4-2c-0.2-1.2-0.2-2.5,0-3.8
		c0.4-2.6,1.8-4.8,3.7-6.6c0,0,0,0,0,0c4.2-3.9,9.1-3.7,14.1-1.7c0.1-0.2,0.2-0.3,0.2-0.3c0.4-2,0-2.5-2.1-3.4
		c-0.8-0.3-1.7-1.1-1.8-1.8c-0.2-1.5,2-2.7,3.2-2.9c2.7-0.5,5.5-1.2,8.3-1.5c2.8-0.3,3.2,0,3.6,2.9c0.8,5.5,1.5,11.1,2.4,16.7
		c0.3,2.2,0.3,4.6,1.3,6.6c0.5,1,1.2,1.9,2.1,2.6C155.3,38.8,155.6,38.8,155.7,39.2z M140,32.9c0-0.5-0.1-1-0.2-1.5
		c-0.3-1.8-0.7-3.7-1.3-5.5c-0.4-1.2-1.6-2.1-2.9-1.8c-1.2,0.2-2,1.6-2.3,2.7c-0.4,1.4-0.3,2.9-0.2,4.4c0.2,1.8,0.7,3.6,1.9,5
		c0.7,0.8,2.2,1.6,3.2,1c0.9-0.5,1.4-1.8,1.6-2.7C140,34,140,33.5,140,32.9z M26.3,32.4c0-0.3,0-0.6,0-0.9c0-0.4,0-0.7-0.1-1.1
		c-0.2-1.9-0.8-4.1-3.2-3.9c-1.4,0.1-2.1,1-2.2,2.2c-0.3,2.9-0.6,5.8-0.7,8.7c-0.1,2.2,1.4,3,3.3,1.9c0.6-0.3,1.1-0.8,1.4-1.3
		C26.1,36.4,26.2,34.4,26.3,32.4z M85.3,26.8c0.1,0,0.1,0,0.2,0c1.1,0,2.6,0.3,2.6-1.3c0-1.4-1.2-2.5-2.7-2.5
		c-1.4,0-2.9,1.4-2.8,2.7C82.7,27.1,84.2,26.9,85.3,26.8z"/>
</g>
<g id="Calque_4">
</g>
<g id="Calque_3">
</g>
<g id="MENU">
</g>
</svg>
